<?xml version="1.0" encoding="UTF-8"?>
<svg width="518px" height="138px" viewBox="0 0 518 138" version="1.1" xmlns="http://www.w3.org/2000/svg" xmlns:xlink="http://www.w3.org/1999/xlink">
    <title>Group 14</title>
    <defs>
        <polygon id="path-1" points="0.0002 0.4034 131.9842 0.4034 131.9842 137 0.0002 137"></polygon>
    </defs>
    <g id="Page-1" stroke="none" stroke-width="1" fill="none" fill-rule="evenodd">
        <g id="Group-14">
            <g id="Group-3" transform="translate(0.000000, 0.597000)">
                <mask id="mask-2" fill="white">
                    <use xlink:href="#path-1"></use>
                </mask>
                <g id="Clip-2"></g>
                <path d="M14.8712,91.4814 L131.9492,39.3124 L131.9842,47.5514 L14.8492,99.7464 L14.8712,91.4814 Z M117.1012,29.1344 L117.1362,37.4804 L0.0002,89.8124 L0.0232,81.4394 L38.1272,64.4164 C28.9842,58.6924 21.7452,49.6824 22.4052,35.0694 C22.7852,24.0074 27.9102,14.8724 37.2262,8.6514 C45.1932,3.3334 55.8952,0.4034 67.3632,0.4034 C79.6522,0.4034 89.6502,3.2214 98.7092,9.3104 C104.3032,13.0694 109.2462,20.1114 109.2462,20.1114 L96.0282,26.0154 C96.0282,26.0154 93.8052,23.4044 91.7872,21.8424 C86.4822,17.7374 78.3262,14.4784 67.3632,14.4784 C60.5222,14.4784 38.1002,16.0014 36.7972,35.6124 C36.3102,41.9414 38.0732,50.4534 55.5002,56.6554 L117.1012,29.1344 Z M86.7292,80.0144 L101.8382,73.2544 C109.1852,79.4794 114.6672,88.9874 113.7322,101.9044 C112.5392,118.8074 97.4112,137.0004 67.0122,137.0004 C48.0352,137.0004 31.2012,128.7424 21.9812,114.9084 L19.9222,111.8164 L18.9732,110.3164 L32.0462,104.4794 L32.8582,105.5264 L34.3222,107.6144 C41.0352,117.1874 53.3882,122.9024 67.3642,122.9024 C80.5812,122.9024 96.7922,117.1524 99.0202,100.9524 C99.7132,91.0224 95.1832,84.2764 86.7292,80.0144 L86.7292,80.0144 Z" id="Fill-1" fill="#134CED" mask="url(#mask-2)"></path>
            </g>
            <path d="M176.42,110.0794 C171.609,108.6144 167.799,106.6694 164.992,104.2464 L169.297,94.5904 C172.036,96.7584 175.402,98.5254 179.386,99.8974 C183.37,101.2664 187.367,101.9514 191.383,101.9514 C196.358,101.9514 200.071,101.1554 202.525,99.5614 C204.976,97.9704 206.207,95.8644 206.207,93.2494 C206.207,91.3384 205.519,89.7614 204.149,88.5184 C202.779,87.2734 201.04,86.3044 198.938,85.6014 C196.834,84.9014 193.966,84.1054 190.333,83.2124 C185.233,82.0004 181.107,80.7884 177.95,79.5764 C174.797,78.3674 172.085,76.4714 169.821,73.8874 C167.559,71.3064 166.429,67.8154 166.429,63.4184 C166.429,59.7214 167.434,56.3594 169.44,53.3314 C171.449,50.3034 174.477,47.8974 178.524,46.1124 C182.569,44.3274 187.527,43.4334 193.393,43.4334 C197.47,43.4334 201.489,43.9444 205.442,44.9634 C209.391,45.9834 212.802,47.4504 215.674,49.3624 L211.752,59.0204 C208.817,57.2974 205.758,55.9924 202.57,55.0994 C199.382,54.2074 196.292,53.7604 193.299,53.7604 C188.386,53.7604 184.739,54.5894 182.348,56.2454 C179.96,57.9044 178.764,60.1024 178.764,62.8444 C178.764,64.7564 179.448,66.3194 180.817,67.5284 C182.188,68.7404 183.926,69.6964 186.029,70.3984 C188.132,71.0994 191,71.8974 194.638,72.7894 C199.608,73.9354 203.687,75.1304 206.874,76.3754 C210.063,77.6184 212.788,79.5154 215.052,82.0644 C217.311,84.6144 218.444,88.0564 218.444,92.3894 C218.444,96.0894 217.44,99.4344 215.434,102.4304 C213.424,105.4264 210.378,107.8164 206.301,109.6014 C202.224,111.3854 197.248,112.2784 191.383,112.2784 C186.221,112.2784 181.232,111.5454 176.42,110.0794" id="Fill-4" fill="#343434"></path>
            <path d="M267.2091,36.2629 C266.1241,35.1809 265.5861,33.8089 265.5861,32.1509 C265.5861,30.4289 266.1241,29.0289 267.2091,27.9439 C268.2941,26.8609 269.6631,26.3189 271.3221,26.3189 C272.9771,26.3189 274.3511,26.8609 275.4311,27.9439 C276.5161,29.0289 277.0581,30.4289 277.0581,32.1509 C277.0581,33.8089 276.5161,35.1809 275.4311,36.2629 C274.3511,37.3479 272.9771,37.8879 271.3221,37.8879 C269.6631,37.8879 268.2941,37.3479 267.2091,36.2629 M248.6581,36.2629 C247.5731,35.1809 247.0351,33.8089 247.0351,32.1509 C247.0351,30.4289 247.5731,29.0289 248.6581,27.9439 C249.7431,26.8609 251.1121,26.3189 252.7721,26.3189 C254.4301,26.3189 255.7991,26.8609 256.8841,27.9439 C257.9651,29.0289 258.5071,30.4289 258.5071,32.1509 C258.5071,33.8089 257.9651,35.1809 256.8841,36.2629 C255.7991,37.3479 254.4301,37.8879 252.7721,37.8879 C251.1121,37.8879 249.7431,37.3479 248.6581,36.2629 M274.0921,98.3659 C277.6631,96.3579 280.4691,93.5539 282.5101,89.9519 C284.5461,86.3509 285.5681,82.3179 285.5681,77.8559 C285.5681,73.3959 284.5461,69.3629 282.5101,65.7609 C280.4691,62.1589 277.6631,59.3539 274.0921,57.3459 C270.5221,55.3389 266.5071,54.3339 262.0471,54.3339 C257.5821,54.3339 253.5671,55.3389 249.9971,57.3459 C246.4261,59.3539 243.6251,62.1589 241.5841,65.7609 C239.5431,69.3629 238.5241,73.3959 238.5241,77.8559 C238.5241,82.3179 239.5431,86.3509 241.5841,89.9519 C243.6251,93.5539 246.4261,96.3579 249.9971,98.3659 C253.5671,100.3749 257.5821,101.3779 262.0471,101.3779 C266.5071,101.3779 270.5221,100.3749 274.0921,98.3659 M243.5941,107.8319 C238.1111,104.8679 233.8071,100.7579 230.6861,95.4969 C227.5601,90.2399 225.9991,84.3589 225.9991,77.8559 C225.9991,71.3549 227.5601,65.4749 230.6861,60.2139 C233.8071,54.9559 238.1111,50.8429 243.5941,47.8799 C249.0711,44.9159 255.2261,43.4329 262.0471,43.4329 C268.8671,43.4329 275.0181,44.9159 280.5001,47.8799 C285.9821,50.8429 290.2861,54.9409 293.4081,60.1669 C296.5291,65.3949 298.0951,71.2899 298.0951,77.8559 C298.0951,84.4229 296.5291,90.3199 293.4081,95.5459 C290.2861,100.7739 285.9821,104.8679 280.5001,107.8319 C275.0181,110.7949 268.8671,112.2789 262.0471,112.2789 C255.2261,112.2789 249.0711,110.7949 243.5941,107.8319" id="Fill-6" fill="#343434"></path>
            <path d="M356.9933,77.0911 L368.7543,77.0911 L368.7543,103.7681 C365.3123,106.5091 361.2973,108.6141 356.7083,110.0791 C352.1153,111.5451 347.3973,112.2791 342.5553,112.2791 C335.7343,112.2791 329.5803,110.7951 324.1023,107.8321 C318.6203,104.8681 314.3153,100.7741 311.1943,95.5461 C308.0683,90.3201 306.5083,84.4231 306.5083,77.8561 C306.5083,71.2901 308.0683,65.3951 311.1943,60.1671 C314.3153,54.9411 318.6333,50.8431 324.1463,47.8801 C329.6603,44.9161 335.8633,43.4331 342.7463,43.4331 C348.3533,43.4331 353.4543,44.3581 358.0473,46.2081 C362.6363,48.0551 366.4913,50.7661 369.6163,54.3341 L361.7733,61.9841 C356.6733,56.8841 350.5233,54.3341 343.3203,54.3341 C338.6023,54.3341 334.4093,55.3231 330.7453,57.2971 C327.0813,59.2761 324.2133,62.0481 322.1413,65.6161 C320.0693,69.1881 319.0333,73.2671 319.0333,77.8561 C319.0333,82.3181 320.0693,86.3351 322.1413,89.9041 C324.2133,93.4741 327.0813,96.2791 330.7453,98.3191 C334.4093,100.3601 338.5713,101.3781 343.2223,101.3781 C348.4513,101.3781 353.0403,100.2311 356.9933,97.9371 L356.9933,77.0911 Z" id="Fill-8" fill="#343434"></path>
            <path d="M392.2765,104.4856 C387.1135,99.2906 384.5305,91.8486 384.5305,82.1606 L384.5305,44.3886 L396.9635,44.3886 L396.9635,81.6816 C396.9635,94.8126 402.6315,101.3786 413.9795,101.3786 C425.2645,101.3786 430.9075,94.8126 430.9075,81.6816 L430.9075,44.3886 L443.1445,44.3886 L443.1445,82.1606 C443.1445,91.8486 440.5785,99.2906 435.4475,104.4856 C430.3165,109.6816 423.1265,112.2786 413.8855,112.2786 C404.6415,112.2786 397.4385,109.6816 392.2765,104.4856" id="Fill-10" fill="#343434"></path>
            <path d="M499.8458,58.3508 C497.0398,56.0548 492.9278,54.9078 487.5118,54.9078 L472.9758,54.9078 L472.9758,81.5858 L487.5118,81.5858 C492.9278,81.5858 497.0398,80.4238 499.8458,78.0958 C502.6478,75.7678 504.0528,72.4708 504.0528,68.1988 C504.0528,63.9288 502.6478,60.6458 499.8458,58.3508 L499.8458,58.3508 Z M504.3368,111.3228 L490.6638,91.7198 C490.0908,91.7848 489.2328,91.8158 488.0848,91.8158 L472.9758,91.8158 L472.9758,111.3228 L460.5478,111.3228 L460.5478,44.3888 L488.0848,44.3888 C493.8838,44.3888 498.9348,45.3448 503.2398,47.2588 C507.5428,49.1708 510.8428,51.9128 513.1368,55.4808 C515.4318,59.0518 516.5778,63.2908 516.5778,68.1988 C516.5778,73.2358 515.3518,77.5688 512.8968,81.2018 C510.4428,84.8368 506.9208,87.5468 502.3318,89.3308 L517.7258,111.3228 L504.3368,111.3228 Z" id="Fill-12" fill="#343434"></path>
        </g>
    </g>
</svg>